<svg xmlns="http://www.w3.org/2000/svg" viewBox="0 0 137.66 19.43"><defs><style>.cls-1{fill:#49beb7;}</style></defs><g id="레이어_2" data-name="레이어 2"><g id="레이어_2-2" data-name="레이어 2"><path class="cls-1" d="M0,9.15a11.5,11.5,0,0,1,3.35-8h2a11.41,11.41,0,0,0-3.51,8,11.44,11.44,0,0,0,3.51,8h-2A11.52,11.52,0,0,1,0,9.15Z"/><path d="M15,6.39H12.68v8.66H10.83V6.39H8.54V4.75h2.29V1.62h1.85V4.75H15Z"/><path d="M18.73,4.75V6.34A4.22,4.22,0,0,1,22.44,4.5a4.28,4.28,0,0,1,1.4.18V6.45a3.66,3.66,0,0,0-1.53-.29,3.55,3.55,0,0,0-3.58,3.56v5.33H16.87V4.75Z"/><path d="M27.84,1.22a1.2,1.2,0,0,1-1.25,1.23,1.19,1.19,0,0,1-1.22-1.23A1.19,1.19,0,0,1,26.59,0,1.2,1.2,0,0,1,27.84,1.22ZM25.68,15.07V4.75h1.85V15.07Z"/><path d="M32.3,13.52v5.91H30.45V4.75H32.3V6.28A4.16,4.16,0,0,1,36,4.5a5.13,5.13,0,0,1,5.09,5.4A5.13,5.13,0,0,1,36,15.3,4.16,4.16,0,0,1,32.3,13.52ZM39.23,9.9a3.47,3.47,0,0,0-3.44-3.76A3.53,3.53,0,0,0,32.26,9.9a3.54,3.54,0,0,0,3.53,3.77A3.47,3.47,0,0,0,39.23,9.9Z"/><path d="M67.6,4.75V6.34A4.24,4.24,0,0,1,71.31,4.5a4.35,4.35,0,0,1,1.41.18V6.45a3.69,3.69,0,0,0-1.53-.29A3.55,3.55,0,0,0,67.6,9.72v5.33H65.75V4.75Z"/><path d="M73.47,9.9a5.17,5.17,0,1,1,10.32,0,4.9,4.9,0,0,1,0,.76H75.33a3.28,3.28,0,0,0,3.31,3.08,3.06,3.06,0,0,0,2.88-1.5h1.89a4.77,4.77,0,0,1-4.77,3.06A5.12,5.12,0,0,1,73.47,9.9Zm5.17-3.83a3.24,3.24,0,0,0-3.31,3.08H82A3.28,3.28,0,0,0,78.64,6.07Z"/><path d="M95.27,4.75l-4.35,10.3H89L84.61,4.75h2L90,13l3.36-8.2Z"/><path d="M99.32,1.22a1.24,1.24,0,0,1-2.47,0,1.24,1.24,0,0,1,2.47,0ZM97.16,15.07V4.75H99V15.07Z"/><path d="M101.39,9.9a5.17,5.17,0,1,1,10.32,0,4.9,4.9,0,0,1,0,.76h-8.43a3.29,3.29,0,0,0,3.32,3.08,3.06,3.06,0,0,0,2.88-1.5h1.89a4.77,4.77,0,0,1-4.77,3.06A5.12,5.12,0,0,1,101.39,9.9Zm5.17-3.83a3.26,3.26,0,0,0-3.32,3.08h6.65A3.28,3.28,0,0,0,106.56,6.07Z"/><path d="M129.06,4.75l-3.64,10.3h-1.87l-2.72-7.88-2.7,7.88h-1.87l-3.64-10.3h1.93l2.7,8,2.68-8h1.87l2.7,8.05,2.72-8Z"/><path class="cls-1" d="M135.82,9.91a11.43,11.43,0,0,0-3.49-8h2a11.44,11.44,0,0,1,3.35,8,11.42,11.42,0,0,1-3.35,8h-2A11.39,11.39,0,0,0,135.82,9.91Z"/><path class="cls-1" d="M58.08,10.12H54v4.2H51.83v-4.2H47.74V8.18h4.09V4H54v4.2h4.1Z"/></g></g></svg>